<?xml version="1.0" encoding="utf-8"?>
<!-- Svg Vector Icons : http://www.onlinewebfonts.com/icon -->
<!DOCTYPE svg PUBLIC "-//W3C//DTD SVG 1.1//EN" "http://www.w3.org/Graphics/SVG/1.1/DTD/svg11.dtd">
<svg version="1.1" xmlns="http://www.w3.org/2000/svg" xmlns:xlink="http://www.w3.org/1999/xlink" x="0px" y="0px" viewBox="0 0 1000 1000" enable-background="new 0 0 1000 1000" xml:space="preserve">
<metadata> Svg Vector Icons : http://www.onlinewebfonts.com/icon </metadata>
<g><path d="M965.5,255c-7.4,0-12.2,2.4-17.2,7.4L500,686.2L51.6,262.4c-4.9-4.9-9.8-7.4-17.2-7.4c-14.7,0-24.5,9.8-24.5,24.5c0,7.4,2.4,12.3,7.3,17.2l465.5,441c4.9,4.9,9.8,7.3,17.2,7.3c7.4,0,12.3-2.5,17.1-7.3l465.5-441c4.9-4.9,7.4-9.8,7.4-17.2C990,264.8,980.2,255,965.5,255z"/></g>
</svg>